<?xml version="1.0" encoding="UTF-8"?>
<svg id="Layer_2" data-name="Layer 2" xmlns="http://www.w3.org/2000/svg" viewBox="0 0 24 24"  width="24px" height="24px" stroke-width="1.5">
  <defs>
    <style>
      .cls-1 {
        fill: none;
        stroke: #000;
        stroke-miterlimit: 10;
        stroke-width: .1px;
      }
    </style>
  </defs>
  <polygon class="cls-1" points="3.34 17.5 17.15 3.49 20.29 6.46 6.53 20.57 5.02 19.12 3.34 17.5"/>
  <line class="cls-1" x1="15.99" y1="7.69" x2="5.02" y2="19.12"/>
  <polyline class="cls-1" points="7.96 10.54 2.35 5.03 5.15 2.03 10.5 7.69"/>
  <polyline class="cls-1" points="13.07 15.98 18.95 21.52 21.54 18.75 16.26 13.4 15.04 14.65"/>
  <path class="cls-1" d="m17.59,3.02c.82-.87,2.2-.91,3.07-.09s.91,2.2.09,3.07"/>
  <line class="cls-1" x1="17.28" y1="3" x2="20.81" y2="6.28"/>
  <polyline class="cls-1" points="3.34 17.5 2.84 17.93 2.24 21.7"/>
  <polyline class="cls-1" points="6.45 20.65 6.01 21.06 2.07 21.59"/>
  <line class="cls-1" x1="6.91" y1="3.88" x2="6.19" y2="4.59"/>
  <line class="cls-1" x1="9.04" y1="6.2" x2="8.33" y2="6.91"/>
  <line class="cls-1" x1="7.87" y1="5.03" x2="6.91" y2="6.05"/>
  <line class="cls-1" x1="10.5" y1="7.33" x2="9.35" y2="8.46"/>
  <line class="cls-1" x1="17.64" y1="14.69" x2="16.92" y2="15.4"/>
  <line class="cls-1" x1="16.44" y1="3.9" x2="19.84" y2="7.05"/>
</svg>