<svg width="24px" height="24px" stroke-width="0.2" viewBox="0 0 24 24" fill="none" xmlns="http://www.w3.org/2000/svg" color="#000000">
<g id="Layer">
	<g>
		<path class="st0" d="M19.2,19.2L19.2,19.2c0.4-0.4,0.4-1.1,0-1.4c-0.2-0.2-0.4-0.3-0.7-0.3c-0.2,0-0.5,0.1-0.7,0.3
			c-0.4,0.4-0.4,1.1,0,1.4C18.1,19.6,18.8,19.6,19.2,19.2z M18,18.9c-0.1-0.1-0.2-0.3-0.2-0.4c0-0.2,0.1-0.3,0.2-0.4
			c0.1-0.1,0.2-0.2,0.4-0.2s0.3,0.1,0.4,0.2c0.2,0.3,0.2,0.6,0,0.8C18.6,19.1,18.3,19.1,18,18.9z"/>
		<path class="st0" d="M21,6.4L21,6.4L21,6.4L21,6.4L21,6.4c1-1.1,1-2.6,0-3.6C20.5,2.3,19.9,2,19.2,2S18,2.3,17.5,2.7l0,0l-0.1,0.1
			l0,0l0,0L2.7,17.7l0,0c-0.1,0.1-0.2,0.2-0.2,0.3L2,21.5c0,0.1,0,0.3,0.1,0.3C2.2,22,2.2,22,2.3,22c0,0,0,0,0.1,0L6,21.5
			c0.1,0,0.2-0.1,0.2-0.2l0,0L21,6.4z M19.2,2.8c0.5,0,0.9,0.2,1.2,0.5C21,4,21.1,4.9,20.7,5.6l-2.5-2.5C18.5,2.9,18.8,2.8,19.2,2.8
			z M17.5,3.7L20,6.3l-13.8,14l-1-1L16.4,8.1l-0.7-0.7L4.6,18.6l-0.9-0.9L17.5,3.7z M2.7,21.1l0.4-2.9l2.5,2.5L2.7,21.1z"/>
		<path class="st0" d="M7.6,10.9l0.7-0.7L3.2,5.1L5.2,3l1,1L5.5,4.8l0.6,0.5l0.7-0.8l0.6,0.6L6.7,5.9l0.5,0.6l0.7-0.8l0.6,0.6
			L7.4,7.4L8,8l1.1-1.1l0.7,0.7L9,8.3l0.6,0.6l0.7-0.8l0,0L11,7.5L5.5,2.1C5.3,2,5,2,4.8,2.1L2.2,4.8C2,5,2,5.3,2.2,5.5L7.6,10.9z"
			/>
		<path class="st0" d="M21.9,18.5C21.8,18.5,21.8,18.5,21.9,18.5l-5.7-5.7l-1.7,1.7l0.6,0.6l1.1-1.1l4.8,4.9L18.8,21l-5.4-5.4
			l-0.6,0.7l5.7,5.7c0.2,0.2,0.5,0.2,0.7,0l2.7-2.8l0,0C22,19,22,18.7,21.9,18.5z"/>
	</g>
</g>
</svg>
