<?xml version="1.0" encoding="UTF-8"?>
<svg width="24px" height="24px" color="#ffffff" id="Layer_2" data-name="Layer 2" xmlns="http://www.w3.org/2000/svg" viewBox="0 0 24 24">
  <defs>
    <style>
      .cls-1 {
        fill: none;
        stroke: currentColor;
        stroke-miterlimit: 10;
        stroke-width: .7px;
      }
    </style>
  </defs>
  <polygon class="cls-1" points="3.38 17.48 17.19 3.47 20.33 6.44 6.57 20.55 5.06 19.1 3.38 17.48"/>
  <line class="cls-1" x1="16.03" y1="7.67" x2="5.06" y2="19.1"/>
  <polyline class="cls-1" points="8 10.52 2.39 5.01 5.19 2.01 10.54 7.67"/>
  <polyline class="cls-1" points="13.11 15.96 18.99 21.5 21.58 18.73 16.3 13.38 15.08 14.63"/>
  <polyline class="cls-1" points="3.38 17.48 2.88 17.91 2.28 21.68"/>
  <polyline class="cls-1" points="6.49 20.63 6.05 21.04 2.11 21.57"/>
  <line class="cls-1" x1="6.95" y1="3.86" x2="6.23" y2="4.57"/>
  <line class="cls-1" x1="9.08" y1="6.18" x2="8.37" y2="6.89"/>
  <line class="cls-1" x1="7.91" y1="5.01" x2="6.95" y2="6.03"/>
  <line class="cls-1" x1="10.54" y1="7.31" x2="9.39" y2="8.44"/>
  <line class="cls-1" x1="17.68" y1="14.67" x2="16.96" y2="15.38"/>
  <line class="cls-1" x1="16.48" y1="3.88" x2="19.88" y2="7.03"/>
  <polygon class="cls-1" points="17.71 2.93 17.97 2.7 18.29 2.51 18.54 2.4 18.76 2.34 19.04 2.29 19.2 2.28 19.43 2.29 19.67 2.32 19.92 2.38 20.1 2.45 20.32 2.56 20.57 2.73 20.75 2.88 20.92 3.07 21.07 3.27 21.2 3.5 21.29 3.75 21.35 3.98 21.4 4.23 21.4 4.44 21.38 4.69 21.34 4.91 21.28 5.14 21.18 5.37 21.06 5.58 20.98 5.69 20.88 5.82 17.71 2.93"/>
</svg>