<?xml version="1.0" encoding="utf-8"?>
<!-- Generator: Adobe Illustrator 27.8.1, SVG Export Plug-In . SVG Version: 6.00 Build 0)  -->
<svg version="1.1" id="DESIGN" xmlns="http://www.w3.org/2000/svg" xmlns:xlink="http://www.w3.org/1999/xlink" x="0px" y="0px"
	 viewBox="0 0 24 24" style="enable-background:new 0 0 24 24;" xml:space="preserve">
<g id="Layer">
	<g>
		<path d="M20.5,20.6L20.5,20.6c0.5-0.5,0.5-1.3,0-1.7c-0.2-0.2-0.5-0.4-0.9-0.4c-0.3,0-0.6,0.1-0.9,0.4c-0.5,0.5-0.5,1.3,0,1.7
			C19.2,21.1,20,21.1,20.5,20.6z M19.1,20.3c-0.1-0.1-0.2-0.3-0.2-0.5c0-0.2,0.1-0.4,0.2-0.5c0.1-0.1,0.3-0.2,0.5-0.2
			c0.2,0,0.4,0.1,0.5,0.2c0.3,0.3,0.3,0.7,0,1C19.8,20.5,19.4,20.5,19.1,20.3z"/>
		<path d="M22.6,5.3C22.6,5.3,22.6,5.3,22.6,5.3C22.6,5.3,22.6,5.3,22.6,5.3L22.6,5.3L22.6,5.3c1.2-1.3,1.2-3.1,0-4.3
			c-0.6-0.6-1.3-0.9-2.1-0.9c-0.8,0-1.5,0.3-2.1,0.8l0,0L18.3,1c0,0,0,0,0,0c0,0,0,0,0,0L0.6,18.8l0,0c-0.1,0.1-0.2,0.2-0.2,0.3
			l-0.6,4.3c0,0.1,0,0.3,0.1,0.4c0.1,0.1,0.2,0.1,0.3,0.1c0,0,0,0,0.1,0l4.3-0.6c0.1,0,0.2-0.1,0.3-0.2l0,0L22.6,5.3z M20.5,1
			c0.6,0,1.1,0.2,1.5,0.6c0.7,0.8,0.8,1.9,0.3,2.8l-3-3C19.6,1.1,20,1,20.5,1z M18.4,2.1l3.1,3.1L4.9,21.9l-1.2-1.2L17.1,7.3
			l-0.8-0.8L2.9,19.9l-1.1-1.1L18.4,2.1z M0.7,22.9l0.5-3.5l3,3L0.7,22.9z"/>
		<path d="M6.5,10.7l0.8-0.8L1.2,3.8l2.5-2.5l1.2,1.2L4,3.4L4.7,4l0.9-0.9l0.7,0.7L5.4,4.7L6,5.4l0.9-0.9l0.7,0.7L6.3,6.5L7,7.2
			l1.3-1.3l0.8,0.8L8.2,7.6l0.7,0.7l0.9-0.9l0,0l0.8-0.8L4,0.2c-0.2-0.2-0.6-0.2-0.8,0L0,3.4C-0.2,3.6-0.2,4,0,4.2L6.5,10.7z"/>
		<path d="M23.7,19.8C23.6,19.8,23.6,19.8,23.7,19.8L16.8,13l-2,2l0.7,0.7l1.3-1.3l5.8,5.8L20,22.7l-6.5-6.5L12.8,17l6.8,6.8
			c0.2,0.2,0.6,0.2,0.8,0l3.3-3.3c0,0,0,0,0,0C23.9,20.4,23.9,20,23.7,19.8z"/>
	</g>
</g>
</svg>
